<svg width="1200" height="176" viewBox="0 0 1200 176" fill="none" xmlns="http://www.w3.org/2000/svg">
<g clip-path="url(#clip0_3_8)">
<mask id="mask0_3_8" style="mask-type:luminance" maskUnits="userSpaceOnUse" x="0" y="0" width="1200" height="176">
<path d="M1200 0H0V176H1200V0Z" fill="white"/>
</mask>
<g mask="url(#mask0_3_8)">
<path d="M144.407 0.723389C88.1188 0.723389 69.5751 51.8401 58.2603 93.7279C68.8322 106.728 76.004 122.701 77.4897 139.416C82.7471 103.814 98.9194 46.7256 119.549 32.5821C131.521 24.4102 144.407 25.0388 144.407 25.0388C144.036 25.0388 144.779 0.723389 144.407 0.723389Z" fill="#FAA61A"/>
<path d="M78.1464 159.988H44.9448V175.703H78.1464V159.988Z" fill="#009AD7"/>
<path d="M22.744 67.4407C22.5154 67.355 22.2868 67.2693 22.0868 67.1836C20.9153 66.755 19.7152 66.3835 18.5438 66.0121C17.658 65.7264 16.7722 65.4692 15.8579 65.2406C14.715 64.9549 13.5435 64.6692 12.372 64.412C11.5434 64.2406 10.6862 64.0977 9.82905 63.9834C8.57184 63.7834 7.31464 63.5834 6.05744 63.4405C4.05734 63.2405 2.05724 63.0977 0 63.0977V89.3561C15.7436 89.3561 29.9443 99.8137 37.7447 114.557C41.5449 122.358 43.7735 130.987 44.0593 139.444H77.6037C74.7465 107.528 51.3168 78.1841 22.8011 67.4693" fill="#E64147"/>
<path d="M312.558 54.4404C286.442 54.4404 268.127 72.4127 268.127 98.5283C268.127 126.644 289.099 140.959 309.072 140.959C322.044 140.959 333.187 134.816 338.187 122.644V138.787H356.331V98.3568C356.331 71.8984 338.359 54.4404 312.558 54.4404ZM312.386 122.501C297.9 122.501 288.099 112.186 288.099 97.6997C288.099 83.2132 297.928 72.8985 312.386 72.8985C326.844 72.8985 336.502 83.2132 336.502 97.6997C336.502 112.186 326.844 122.501 312.386 122.501Z" fill="#009AD7"/>
<path d="M408.734 54.4404C387.276 54.4404 372.618 66.2696 372.618 91.0422V138.787H392.419V91.0422C392.419 77.7273 399.077 72.8985 408.734 72.8985C418.392 72.8985 425.049 77.7273 425.049 91.0422V91.8708H444.679V91.3851C444.679 66.2696 430.192 54.4404 408.734 54.4404Z" fill="#009AD7"/>
<path d="M546.655 54.4404C534.169 54.4404 524.026 59.6121 518.197 69.2411C512.197 59.5835 502.053 54.4404 489.738 54.4404C470.28 54.4404 455.308 66.0981 455.308 91.8708V138.787H475.109V91.8708C475.109 78.3844 482.109 72.8985 491.738 72.8985C501.367 72.8985 508.368 78.5559 508.368 91.8708V138.787H528.169V91.8708C528.169 78.5559 535.169 72.8985 544.655 72.8985C554.141 72.8985 561.285 78.3844 561.285 91.8708V138.787H581.086V91.8708C581.086 66.0981 566.113 54.4404 546.655 54.4404Z" fill="#009AD7"/>
<path d="M638.488 54.4404C612.373 54.4404 594.058 72.4127 594.058 98.5283C594.058 126.644 615.03 140.959 635.002 140.959C647.975 140.959 659.118 134.816 664.118 122.644V138.787H682.262V98.3568C682.262 71.8984 664.29 54.4404 638.488 54.4404ZM638.317 122.501C623.83 122.501 614.03 112.186 614.03 97.6997C614.03 83.2132 623.859 72.8985 638.317 72.8985C652.775 72.8985 662.432 83.2132 662.432 97.6997C662.432 112.186 652.775 122.501 638.317 122.501Z" fill="#009AD7"/>
<path d="M224.097 83.2133C224.097 83.2133 223.039 82.7847 220.754 81.8418L268.613 26.582H240.869L200.524 75.8701V26.582H178.466V139.302H200.524V99.7856L203.638 99.7284C222.497 99.8427 238.64 118.701 238.64 139.673H265.413C263.213 115.101 245.726 92.4424 224.097 83.1848" fill="#009AD7"/>
<path d="M753.951 47.6398C770.094 47.6398 782.409 56.2974 787.552 69.4409H810.011C803.839 44.6397 782.381 27.8389 753.951 27.8389C720.006 27.8389 696.034 51.8115 696.034 84.413C696.034 117.015 720.006 140.987 753.951 140.987C782.409 140.987 803.868 124.186 810.011 99.3852H787.552C782.381 112.529 770.094 121.358 753.951 121.358C732.321 121.358 717.663 105.728 717.663 84.413C717.663 63.0977 732.293 47.6398 753.951 47.6398Z" fill="#FAA61A"/>
<path d="M870.414 54.4403C859.927 54.4403 851.441 59.2691 845.955 68.0981V20.6672H826.154V138.787H845.955V96.0137C845.955 80.6987 854.613 72.8983 866.756 72.8983C878.9 72.8983 887.557 80.3844 887.557 96.0137V138.787H907.358V96.0137C907.358 66.7266 889.386 54.4117 870.414 54.4117" fill="#FAA61A"/>
<path d="M964.589 54.4404C938.645 54.4404 920.33 72.727 920.33 97.6997C920.33 122.672 938.645 140.959 964.589 140.959C984.047 140.959 999.02 130.816 1005.19 115.158H984.047C979.876 120.472 973.39 122.987 964.589 122.987C952.932 122.987 943.788 116.672 941.131 104.671H1008.51V97.6711C1008.51 72.6985 990.533 54.4119 964.589 54.4119M941.617 88.8992C944.788 78.0987 953.417 72.4413 964.589 72.4413C975.761 72.4413 984.39 77.9273 987.533 88.8992H941.617Z" fill="#FAA61A"/>
<path d="M1062.42 72.927C1073.25 72.927 1081.57 78.5844 1085.05 87.4134H1105.02C1101.02 67.9554 1084.74 54.469 1062.42 54.469C1036.48 54.469 1018.16 72.7842 1018.16 97.7282C1018.16 122.672 1036.45 140.987 1062.42 140.987C1084.71 140.987 1101.02 127.501 1105.02 108.043H1085.05C1081.57 116.872 1073.25 122.529 1062.42 122.529C1047.94 122.529 1038.14 112.215 1038.14 97.7282C1038.14 83.2418 1047.96 72.927 1062.42 72.927Z" fill="#FAA61A"/>
<path d="M1159.91 96.8709L1198.51 56.6118H1173.23L1140.6 92.5564V20.6672H1120.8V138.816H1140.6V101.7L1174.23 138.816H1200L1159.91 96.8709Z" fill="#FAA61A"/>
</g>
</g>
<defs>
<clipPath id="clip0_3_8">
<rect width="1200" height="176" fill="white"/>
</clipPath>
</defs>
</svg>
